<?xml version="1.0" ?><!DOCTYPE svg  PUBLIC '-//W3C//DTD SVG 1.1//EN'  'http://www.w3.org/Graphics/SVG/1.1/DTD/svg11.dtd'><svg enable-background="new 0 0 24 24" height="24px" id="Layer_1" version="1.1" viewBox="0 0 24 24" width="24px" xml:space="preserve" xmlns="http://www.w3.org/2000/svg" xmlns:xlink="http://www.w3.org/1999/xlink"><g><path d="M12,0C5.4,0,0,5.4,0,12s5.4,12,12,12s12-5.4,12-12S18.6,0,12,0z M12,22C6.5,22,2,17.5,2,12S6.5,2,12,2s10,4.5,10,10   S17.5,22,12,22z"/><path d="M8,17h3V7H8V17z M9,8h1v8H9V8z"/><path d="M13,17h3V7h-3V17z M14,8h1v8h-1V8z"/></g></svg>