<?xml version="1.0" ?><svg fill="none" height="24" viewBox="0 0 24 24" width="24" xmlns="http://www.w3.org/2000/svg"><path clip-rule="evenodd" d="M18.53 15.152C18.2217 14.9593 17.8332 14.9491 17.5152 15.1254C17.1973 15.3016 17 15.6365 17 16V21C17 21.3635 17.1973 21.6984 17.5152 21.8746C17.8332 22.0509 18.2217 22.0407 18.53 21.848L22.53 19.348C22.8224 19.1653 23 18.8448 23 18.5C23 18.1552 22.8224 17.8347 22.53 17.652L18.53 15.152Z" fill="black" fill-rule="evenodd"/><path clip-rule="evenodd" d="M2 15.5C1.44772 15.5 1 15.9477 1 16.5V20.5C1 21.0523 1.44772 21.5 2 21.5H15C15.5523 21.5 16 21.0523 16 20.5V16.5C16 15.9477 15.5523 15.5 15 15.5H2Z" fill="black" fill-rule="evenodd"/><path clip-rule="evenodd" d="M1 2.5C1 1.94772 1.44772 1.5 2 1.5H22C22.5523 1.5 23 1.94772 23 2.5V6.5C23 7.05228 22.5523 7.5 22 7.5H2C1.44772 7.5 1 7.05228 1 6.5V2.5ZM2 8.5C1.44772 8.5 1 8.94772 1 9.5V13.5C1 14.0523 1.44772 14.5 2 14.5H22C22.5523 14.5 23 14.0523 23 13.5V9.5C23 8.94772 22.5523 8.5 22 8.5H2Z" fill="black" fill-rule="evenodd"/></svg>